# xmcd CD database file
#
# Track frame offsets:
#	150
#	20370
#	49810
#	98337
#	115375
#	128620
#	146035
#	153580
#	176330
#	210135
#
# Disc length: 3712 seconds
#
# Revision: 0
# Processed by: cddbd v1.5.1PL2 Copyright (c) Steve Scherf et al.
# Submitted via: CDex 1.51
#
DISCID=780e7e0a
DTITLE=Chicago Underground Duo - 12°of freedom
DYEAR=1998
DGENRE=Jazz
TTITLE0=The Pursued
TTITLE1=Not quite dark yet and the stars shining above the withered fields (Mazurek)
TTITLE2=January 15th
TTITLE3=The Big Bang Theory
TTITLE4=Waiting for you is like watching stillness grow into enormous wings (Mazurek)
TTITLE5=Twelve Degrees of Freedom
TTITLE6=Lemon Grass
TTITLE7=Gratitude (Taylor)
TTITLE8=into the unanimous blue
TTITLE9=Dream Tigers
EXTD=YEAR: 1998
EXTT0=
EXTT1=
EXTT2=
EXTT3=
EXTT4=
EXTT5=
EXTT6=
EXTT7=
EXTT8=
EXTT9=
PLAYORDER=
